<svg xmlns="http://www.w3.org/2000/svg" xml:space="preserve" style="fill-rule:evenodd;clip-rule:evenodd;stroke-linejoin:round;stroke-miterlimit:2" viewBox="0 0 1414 248"><path d="M186.85 76.754c-5.8 7.702-26.382 37.411-68.514 81.72-10.214 10.726-22.275 19.117-24.37 20.573-.587.414-7.844 5.815-15.676 5.49-1.403-.06-7.425-.247-6.633-10.27.727-9.198 4.773-17.648 6.033-20.573 1.422-3.35 4.547-10.459 12.755-26.282a5231.874 5231.874 0 0 0 12.736-25.01 1501.513 1501.513 0 0 1-23.43 21.053c-17.534 16.368-30.919 28.223-50.503 45.67-2.85 2.608-6.163 4.924-9.297 6.371-1.013.772-8.142 6.397-16.674 6.417-2.77.029-8.405-2.653 7.526-33.817 2.002-3.89 8.708-16.91 27.634-47.18.812-1.345 5.314-8.796 10.11-16.826 2.09-3.392 6.037-10.151 11.102-16.892 2.125-2.826 5.274-5.65 8.932-7.678 2.766-1.533 6.523-2.95 9.69-2.854 8.204.252 3.103 8.992 2.788 9.597-.947 1.826-3.29 6.286-9.274 16.372-.028.048-4.478 7.275-10.23 16.455l-30.109 50.36c49.064-43.478 76.176-73.668 80.801-78.55 1.303-1.372 11.738-12.371 20.313-12.11 8.073.245 2.55 12.391 1.766 14.29-2.267 5.442-6.022 15.351-17.623 40.428-14.897 32.077-19.185 42.926-19.678 44.142 9.965-10.586 19.462-20.974 27.622-30.147 28.212-32.958 37.274-46.535 48.955-60.562 4.322-5.137 9.207-6.767 13.102-6.654 1.866.054 4.473.811 5.407 3.452 1.21 3.426-1.308 7.698-1.396 7.855-2.003 2.613-3.56 4.744-3.864 5.16ZM201.315 185.162c-9.331-.222-21.77-2.544-28.34-14.656-6.654-12.208-2.66-27.424 4.273-41.94 6.874-14.281 18.106-30.222 33.633-44.143.057-.052 22.932-22.677 51.573-21.962 15.788.394 19.508 10.26 21.882 21.65.75 3.742 3.931 17.773-3.138 40.14-5.649 17.927-15.806 31.956-27.845 42.184-11.399 9.69-30.824 19.23-52.038 18.727Zm49.13-99.64c-14.95-.506-27.21 11.685-30.538 15.009-8.604 8.648-15.473 18.805-20.054 28.664-.862 1.856-7.89 16.042-2.523 25.538 4.53 7.873 13.882 7.95 15.424 7.99 13.307.34 23.862-6.997 25.308-7.966 7.611-5 15.338-13.048 20.003-25.178 1.219-3.161 17.703-43.265-7.62-44.058ZM348.975 186.237c-4.081-.062-19.127-.37-31.644-7.178-3.172 2.627-7.936 5.18-12.23 5.1-.481-.009-4.7-.05-6.636-3.068-1.882-2.933-.252-6.973-.08-7.405a84.56 84.56 0 0 0 3.157-8.563c.21-.69 1.316-4.311 2.608-8.641 1.99-7.562 5.11-20.644 8.316-35.674 3.6-16.889 5.844-27.867 7.544-35.682 2.809-12.724 12.341-29.407 13.717-31.813 5.959-10.434 14.085-22.781 19.886-32.322 2.82-4.662 6.388-9.166 9.595-12.435 6.915-6.927 11.218-6.865 12.348-6.849 1.007.015 3.695.178 4.299 2.75.618 2.63-1.622 6.796-1.909 7.33-.926 1.722-2.85 4.363-3.117 4.73-.29.397-2.332 3.183-3.259 4.747-4.439 7.348-11.193 17.846-15.808 25.546-3.193 5.368-10.46 17.755-14.51 29.562 6.322-3.685 14.284-7.578 21.051-9.907 5.01-1.724 11.514-3.268 16.673-3.195 17.107.242 24.144 9.091 30.569 19.437 2.923 4.702 12.512 18.869 11.217 43.123-.657 12.293-4.304 20.529-5.707 23.619-2.86 6.295-8.208 14.287-14.85 19.844-12.164 10.175-31.766 17.245-51.23 16.944Zm23.114-101.232c-6.53-.091-13.67 2.426-18.602 4.908-1.462.752-4.063 2.09-17.44 10.868a1869.615 1869.615 0 0 1-4.04 19.448c-.276 1.404-1.73 8.832-3.525 17.54-.305 1.476-1.913 9.277-3.908 18.436 1.19.587 5.545 2.73 15.02 6.591 5.223 1.663 11.613 2.34 16.548 2.419 10.23.162 21.34-2.861 30.298-11.077 8.032-7.368 12.679-17.204 13.639-28.502.141-1.66 1.701-16.095-5.877-28.166-7.552-12.029-18.863-12.42-22.113-12.465ZM499.007 187.493c-4.616-.002-18.766-.212-31.707-6.687-2.765 2.725-7.096 5.274-11.269 5.252-3.31-.017-5.594-1.29-6.882-2.962-2.12-2.752-1.354-6.59-1.184-7.376 1.117-4.429 1.382-7.908 1.435-8.604 0-.011.235-4.54.444-8.694.132-8.221.052-22.59-.12-35.867-.31-23.849-.202-33.006-.168-35.876.08-5.195.184-14.405 8.141-31.846 4.773-10.466 11.812-22.578 16.846-32.433 2.329-4.588 5.415-9.131 8.26-12.441 1.498-1.709 6.101-6.923 11.45-6.875 2.924.026 4.184 1.36 4.684 2.71 1.087 2.939-.922 7.153-.98 7.292-.73 1.74-2.344 4.353-2.57 4.719-.322.52-2.011 3.235-2.743 4.739-3.69 7.392-9.46 17.89-13.218 25.53-2.603 5.34-8.587 17.872-10.185 29.549 5.79-3.824 13.222-7.768 19.706-10.155 4.92-1.812 11.295-3.4 16.54-3.398 17.548.009 26.183 8.705 34.809 18.834 3.546 4.162 15.674 18.458 18.439 43.032 1.368 12.178-.716 20.321-1.612 23.611-1.762 6.464-5.63 14.45-11.107 20.174-9.57 10.007-27.05 17.78-47.01 17.772Zm3.738-101.813c-6.61.006-13.386 2.58-18.047 5.21-4.09 2.363-14.359 10.254-15.575 11.189l-.013 19.558.301 17.635.306 18.536c1.343.59 5.98 2.615 16.075 6.34 5.272 1.528 11.25 2.146 16.567 2.141 11.15-.008 20.772-3.956 27.37-11.565 6.016-6.94 9.427-16.598 8.346-28.735-.207-2.327-1.288-16.445-10.748-28.132-5.435-6.715-13.514-12.187-24.582-12.177ZM608.627 93.844l8.122 56.175c.215 1.214.852 4.9 1.82 12.007.544 4.024 1.21 8.047.615 14.184-1.003 6.767-5.987 11.225-13.386 11.248-9.318.03-10.457-5.57-10.099-11.373.487-8.013-.3-7.987-3.703-41.051-2.714-26.434-4.397-37.691-4.906-41.09-1.948-12.948-4.09-21.247 2.657-41.163 4.634-13.68 11.653-27.927 15.285-41.468C606.428 6.118 609.107-.028 616.82 0c5.515.02 9.647 3.27 7.67 11.375-3.309 13.524-9.977 27.724-14.267 41.363-6.231 19.806-3.882 28.084-1.597 41.106ZM733.572 80.892c-.308 2.11-1.948 18.033-5.615 41.516-.537 3.477-4.333 27.8-7.728 43.305-4.01 17.77-18.865 35.919-29.931 51.768-4.233 6.36-9.44 14.255-13.444 21.902-1.94 3.554-5.428 8.133-12.297 8.126-3.789-.004-7.048-1.315-9.168-3.12-2.621-2.233-3.302-5.171-2.8-7.733 1.153-5.92 10.242-18.248 13.48-22.657 9.683-13.196 21.565-28.02 26.757-42.633-4.87-7.247-26.944-33.37-58.372-77.554-2.184-2.74-4.376-5.479-6.568-8.218-1.36-1.78-4.01-5.46-4.218-8.695-.172-2.711.902-5.71 3.43-8.197 2.335-2.292 5.215-3.554 7.814-3.567 3.689-.02 5.967 1.992 7.17 3.937 7.341 11.763 8.666 11.707 25.949 34.058 11.674 15.106 23.062 30.648 31.034 41.594 3.416-19.73 5.65-36.36 6.023-39.104.143-.92 1.29-8.519 2.865-17.23 1.146-6.362 1.833-10.891 5.02-17.697 2.063-4.433 5.53-6.368 8.753-6.397 2.199-.02 5.05.728 7.7 3.198 3.323 3.105 4.053 6.981 4.196 7.743.273 1.524.251 3.556-.05 5.655ZM918.122 184.59c-11.94.176-23.772-1.974-34.615-6.413-1.891 3.63-5.136 5.585-8.71 5.632a12.404 12.404 0 0 1-8.114-2.937c-3.338-2.802-4.312-6.657-4.527-7.55-.924-4.532-2.27-8.052-2.528-8.732-.158-.4-3.209-7.99-3.481-8.684-5.121-11.732-15.879-35.014-16.23-35.784-.594-1.279-10.535-22.797-16.18-35.785-1.998-4.63-6.51-13.835-6.008-30.925.286-9.73 2.256-21.818 3.065-30.843.358-4.1 1.397-8.531 2.95-12.093.953-2.107 3.324-6.88 8.46-6.911 3.86-.024 7.928 2.413 8.021 9.717.015.976-.143 2.574-.537 4.582-.072.363-.63 3.232-.716 4.57-.537 7.127-1.855 17.064-2.35 24.278-.386 6.016-.823 17.331 2.665 28.354 4.147-3.898 9.84-7.771 15.227-10.128 4.942-2.164 10.392-3.428 15.084-3.497 17.927-.262 30.912 8.584 42.887 17.76 4.204 3.218 23.464 17.502 37.53 42.627.23.41 6.425 10.968 8.545 21.498.35 1.758 2.686 13.349-1.67 22.358-4.74 9.835-18.062 18.603-38.768 18.907ZM876.294 82.534c-4.806.076-10.5 1.462-15.656 5.465-3.023 2.419-9.741 10.439-10.536 11.39l8.702 19.5 8.165 17.58 8.573 18.48c1.511.534 7.04 2.492 18.83 6.073 5.407 1.318 11.631 1.978 17.454 1.886 2.493-.04 17.19-.054 22.117-11.944 4.806-11.6-2.836-25.688-4.49-28.775-6.29-11.718-14.733-21.19-23.242-27.885-3.596-2.826-15.628-12-29.917-11.77ZM1047.192 93.784c.43.709 9.268 14.091-1.983 14.221-9.777.113-15.664-9.248-16.825-11.046-1.812-2.627-3.617-5.256-5.429-7.884-6.216-9.107-6.216-9.098-6.446-9.455-1.704.247-15.678 1.98-21.486 10.389-5.343 7.61-3.188 20.286-2.872 22.303a5906.717 5906.717 0 0 1 19.796 32.68c10.686 17.776 12.95 21.247 15.8 29.234 2.37 6.689.079 11.741-8.523 11.846-8.817.107-11.84-6.638-13.472-11.57-2.657-7.995-4.892-11.473-15.85-30.291a10383.998 10383.998 0 0 0-28.7-48.928c-2.12-3.605-5.8-10.25-6.302-11.147-1.912-3.457-3.374-5.866-5.623-11.085-3.366-7.822.273-11.209 5.68-11.287 8.409-.122 13.214 9.603 18.271 18.223 4.584-10.848 17.755-20.81 37.616-21.058 7.943-.098 13.236 4.404 15.492 6.53 2.714 2.56 5.429 6.096 7.506 8.912 5.859 7.932 7.613 10.576 8.237 11.52l5.113 7.893ZM1063.866 35.07c-3.739.051-7.27-1.732-9.569-3.585-3.065-2.467-5.013-5.724-5.837-8.897-.637-2.47-.81-6.144.96-9.044 2.313-3.803 6.346-3.866 6.983-3.876 3.517-.054 7.12 1.748 9.526 3.62 3.23 2.514 5.422 5.773 6.396 8.946.773 2.532.988 6.158-.917 9.01-2.514 3.757-6.869 3.817-7.542 3.827Zm54.34 90.344c3.28 4.96 7.635 11.373 13.637 20.262 10.579 15.66 12.269 18.61 13.229 20.292.336.58 2.836 4.944 1.196 8.277-1.605 3.252-6.181 3.299-6.79 3.305-2.808.028-6.274-.848-9.619-3.142-4.369-2.995-6.754-7.226-7.305-8.225-.932-1.691-2.407-4.363-13.064-20.293-7.177-10.72-11.03-16.48-13.501-20.256-1.633-2.508-6.51-9.994-16.402-26.47-9.92-16.518-11.41-17.648-16.13-26.361-.307-.573-2.635-4.868-.93-8.096 1.217-2.317 4.068-3.14 6.374-3.166 2.808-.032 6.024.903 9.068 2.992 2.528 1.737 5.156 4.49 7.148 8.034 5.063 9.012 6.646 10.32 16.444 26.367 10.027 16.424 14.833 23.74 16.645 26.48ZM1284.356 182.833c-2.285.034-10.557-4.596-11.073-4.88-8.13-4.625-12.14-7.608-12.92-8.183-4.355 3.601-9.448 6.973-14.254 9.182-4.053 1.862-8.587 3.157-12.62 3.209-22.188.28-37.616-7.467-47.793-14.638-17.705-12.444-31.127-30.418-39.457-42.84-2.557-3.82-9.139-13.81-12.498-25.28-.022-.079-3.903-12.08-1.089-21.623 2.736-9.278 11.84-19.331 32.546-19.597 9.346-.12 22.238 4.072 24.194 4.709 1.389.447 18.249 5.48 25.146 14.87 2.27 3.086 1.891 4.978 1.805 5.427 1.912 3.99 7.506 12.451 8.616 14.13 3.624 5.466 8.38 12.416 17.233 25.183 1.726 2.492 10.077 14.479 17.218 22.1 1.54 1.686 4.311 4.715 20.613 19.766 3.359 2.997 3.394 2.94 6.746 5.952l1.963 1.914c.336.513 2.95 4.51 1.475 7.53-1.117 2.275-3.767 3.036-5.851 3.069Zm-76.715-78.247c-2.177-3.066-4.684-6.87-6.947-10.564a280.002 280.002 0 0 1-6.998-12.158c-.308-.114-5.458-2.02-9.404-3.064-1.561-.414-3.925-.973-5.465-.955-5.794.065-17.397 1.315-19.682 14.584-2.528 14.69 8.23 30.262 10.113 33.048 2.278 3.37 12.542 18.636 25.047 27.72 9.533 6.92 18.665 9.134 25.934 9.056.416-.005 10.808.043 16.101-4.162 2.886-2.333 5.801-8.579 5.873-8.72-26.68-33.655-32.266-41.552-34.572-44.785ZM1407.324 180.98c-10.364.26-17.891-8.457-19.474-10.259l-21.644-24.507c-11.531-13.244-19.045-23.241-20.054-24.577 0 0-1.633-2.115-7.721-10.69-3.173-4.47-6.181-8.595-7.8-10.691-2.034-2.637-6.654-8.74-13.107-15.07-4.52-4.436-10.657-9.145-14.862-9.07-11.273.199-12.054 10.508-12.054 15.375.093 14.014 8.108 31.993 9.311 34.747 2.127 3.185 4.606 7.204 6.883 11.06 2.22 3.777 4.792 7.74 7.04 10.942.996 1.413 2.973 4.11 7.786 10.128 2.048 2.552 6.475 8.201 7.843 10.123.408.564 3.602 5.045 2.514 8.287-1.09 3.22-5.623 3.3-6.181 3.31-3.166.057-6.883-.914-10.429-3.018-3.63-2.15-6.668-5.243-8.709-8.195-.587-.84-1.998-2.887-7.764-10.138-4.856-6.112-6.76-8.758-7.714-10.138-1.303-1.898-5.593-8.07-21.028-32.226-7.291-11.42-15.506-23.517-22.06-32.229-2.42-3.214-3.667-4.564-8.458-10.673-3.087-3.932-5.88-7.754-7.786-10.605-.358-.542-3.15-4.734-1.976-7.887 1.153-3.102 5.157-3.167 5.68-3.176 9.554-.156 18.285 11.211 20.698 14.3a395.282 395.282 0 0 0 10.128 13.11c-.63-15.324 5.894-25.45 19.209-25.702 16.523-.314 31.55 11.603 36.133 15.3 15.349 12.251 29.602 30.357 30.225 31.127l8.874 11.343 7.993 10.444c7.613 9.841 20.305 23.254 21.014 24.006 8.38 8.89 16.588 18.182 20.971 23.856.415.541 3.803 4.927 2.75 8.094-1.06 3.17-5.665 3.284-6.23 3.299Z"/></svg>